<mxfile host="app.diagrams.net" agent="Mozilla/5.0 (Windows NT 10.0; Win64; x64) AppleWebKit/537.36 (KHTML, like Gecko) Chrome/129.0.0.0 Safari/537.36" version="24.7.17" pages="3">
  <diagram id="C5RBs43oDa-KdzZeNtuy" name="SSD + System Operation">
    <mxGraphModel grid="1" page="0" gridSize="10" guides="1" tooltips="1" connect="1" arrows="1" fold="1" pageScale="1" pageWidth="827" pageHeight="1169" math="0" shadow="0">
      <root>
        <mxCell id="WIyWlLk6GJQsqaUBKTNV-0" />
        <mxCell id="WIyWlLk6GJQsqaUBKTNV-1" parent="WIyWlLk6GJQsqaUBKTNV-0" />
        <mxCell id="VqMvxvOwYOKAn_Sbm3tB-6" style="edgeStyle=none;curved=1;rounded=0;orthogonalLoop=1;jettySize=auto;html=1;fontSize=12;startSize=8;endSize=8;dashed=1;endArrow=none;endFill=0;" edge="1" parent="WIyWlLk6GJQsqaUBKTNV-1">
          <mxGeometry relative="1" as="geometry">
            <mxPoint x="120" y="170" as="sourcePoint" />
            <mxPoint x="120" y="560" as="targetPoint" />
          </mxGeometry>
        </mxCell>
        <mxCell id="VqMvxvOwYOKAn_Sbm3tB-0" value=":&lt;u&gt;Administrator&lt;/u&gt;" style="shape=umlActor;verticalLabelPosition=bottom;verticalAlign=top;html=1;outlineConnect=0;" vertex="1" parent="WIyWlLk6GJQsqaUBKTNV-1">
          <mxGeometry x="100" y="80" width="30" height="60" as="geometry" />
        </mxCell>
        <mxCell id="VqMvxvOwYOKAn_Sbm3tB-9" style="edgeStyle=none;curved=1;rounded=0;orthogonalLoop=1;jettySize=auto;html=1;fontSize=12;startSize=8;endSize=8;endArrow=none;endFill=0;dashed=1;" edge="1" parent="WIyWlLk6GJQsqaUBKTNV-1">
          <mxGeometry relative="1" as="geometry">
            <mxPoint x="280" y="560" as="targetPoint" />
            <mxPoint x="280" y="170" as="sourcePoint" />
          </mxGeometry>
        </mxCell>
        <mxCell id="VqMvxvOwYOKAn_Sbm3tB-1" value="&lt;u&gt;:Instructor&lt;/u&gt;" style="shape=umlActor;verticalLabelPosition=bottom;verticalAlign=top;html=1;outlineConnect=0;" vertex="1" parent="WIyWlLk6GJQsqaUBKTNV-1">
          <mxGeometry x="260" y="80" width="30" height="60" as="geometry" />
        </mxCell>
        <mxCell id="VqMvxvOwYOKAn_Sbm3tB-11" style="edgeStyle=none;curved=1;rounded=0;orthogonalLoop=1;jettySize=auto;html=1;fontSize=12;startSize=8;endSize=8;endArrow=none;endFill=0;dashed=1;" edge="1" parent="WIyWlLk6GJQsqaUBKTNV-1">
          <mxGeometry relative="1" as="geometry">
            <mxPoint x="440" y="560" as="targetPoint" />
            <mxPoint x="440" y="160" as="sourcePoint" />
          </mxGeometry>
        </mxCell>
        <mxCell id="VqMvxvOwYOKAn_Sbm3tB-3" value="&lt;u&gt;:System&lt;/u&gt;" style="rounded=0;whiteSpace=wrap;html=1;" vertex="1" parent="WIyWlLk6GJQsqaUBKTNV-1">
          <mxGeometry x="380" y="90" width="120" height="60" as="geometry" />
        </mxCell>
        <mxCell id="VqMvxvOwYOKAn_Sbm3tB-12" value="createOffering(lessonType, startTime, location, mode)" style="html=1;verticalAlign=bottom;endArrow=block;curved=0;rounded=0;fontSize=12;startSize=8;endSize=8;" edge="1" parent="WIyWlLk6GJQsqaUBKTNV-1">
          <mxGeometry width="80" relative="1" as="geometry">
            <mxPoint x="120" y="210" as="sourcePoint" />
            <mxPoint x="440" y="210" as="targetPoint" />
          </mxGeometry>
        </mxCell>
        <mxCell id="VqMvxvOwYOKAn_Sbm3tB-13" value="Offering" style="html=1;verticalAlign=bottom;endArrow=open;dashed=1;endSize=8;curved=0;rounded=0;fontSize=12;" edge="1" parent="WIyWlLk6GJQsqaUBKTNV-1">
          <mxGeometry relative="1" as="geometry">
            <mxPoint x="440" y="240" as="sourcePoint" />
            <mxPoint x="120" y="240" as="targetPoint" />
          </mxGeometry>
        </mxCell>
        <mxCell id="VqMvxvOwYOKAn_Sbm3tB-14" value="viewAvailableOfferings()" style="html=1;verticalAlign=bottom;endArrow=block;curved=0;rounded=0;fontSize=12;startSize=8;endSize=8;" edge="1" parent="WIyWlLk6GJQsqaUBKTNV-1">
          <mxGeometry width="80" relative="1" as="geometry">
            <mxPoint x="280" y="270" as="sourcePoint" />
            <mxPoint x="440" y="270" as="targetPoint" />
          </mxGeometry>
        </mxCell>
        <mxCell id="VqMvxvOwYOKAn_Sbm3tB-15" value="List of Available Offerings" style="html=1;verticalAlign=bottom;endArrow=open;dashed=1;endSize=8;curved=0;rounded=0;fontSize=12;" edge="1" parent="WIyWlLk6GJQsqaUBKTNV-1">
          <mxGeometry relative="1" as="geometry">
            <mxPoint x="440" y="310" as="sourcePoint" />
            <mxPoint x="280" y="310" as="targetPoint" />
          </mxGeometry>
        </mxCell>
        <mxCell id="VqMvxvOwYOKAn_Sbm3tB-16" value="takeOffering(offeringId)" style="html=1;verticalAlign=bottom;endArrow=block;curved=0;rounded=0;fontSize=12;startSize=8;endSize=8;" edge="1" parent="WIyWlLk6GJQsqaUBKTNV-1">
          <mxGeometry width="80" relative="1" as="geometry">
            <mxPoint x="280" y="360" as="sourcePoint" />
            <mxPoint x="440" y="360" as="targetPoint" />
          </mxGeometry>
        </mxCell>
        <mxCell id="VqMvxvOwYOKAn_Sbm3tB-17" value="Offering Taken" style="html=1;verticalAlign=bottom;endArrow=open;dashed=1;endSize=8;curved=0;rounded=0;fontSize=12;" edge="1" parent="WIyWlLk6GJQsqaUBKTNV-1">
          <mxGeometry relative="1" as="geometry">
            <mxPoint x="440" y="390" as="sourcePoint" />
            <mxPoint x="280" y="390" as="targetPoint" />
          </mxGeometry>
        </mxCell>
        <mxCell id="VqMvxvOwYOKAn_Sbm3tB-20" value="" style="edgeStyle=elbowEdgeStyle;elbow=horizontal;endArrow=classic;html=1;curved=0;rounded=0;endSize=8;startSize=8;fontSize=12;" edge="1" parent="WIyWlLk6GJQsqaUBKTNV-1">
          <mxGeometry width="50" height="50" relative="1" as="geometry">
            <mxPoint x="440" y="411" as="sourcePoint" />
            <mxPoint x="440" y="461" as="targetPoint" />
            <Array as="points">
              <mxPoint x="490" y="441" />
            </Array>
          </mxGeometry>
        </mxCell>
        <mxCell id="VqMvxvOwYOKAn_Sbm3tB-21" value="makeOfferingPublic()" style="text;html=1;align=center;verticalAlign=middle;resizable=0;points=[];autosize=1;strokeColor=none;fillColor=none;fontSize=12;" vertex="1" parent="WIyWlLk6GJQsqaUBKTNV-1">
          <mxGeometry x="505" y="421" width="140" height="30" as="geometry" />
        </mxCell>
        <mxCell id="VqMvxvOwYOKAn_Sbm3tB-36" value="System" style="swimlane;fontStyle=0;childLayout=stackLayout;horizontal=1;startSize=26;fillColor=none;horizontalStack=0;resizeParent=1;resizeParentMax=0;resizeLast=0;collapsible=1;marginBottom=0;whiteSpace=wrap;html=1;" vertex="1" parent="WIyWlLk6GJQsqaUBKTNV-1">
          <mxGeometry x="170" y="610" width="350" height="110" as="geometry" />
        </mxCell>
        <mxCell id="VqMvxvOwYOKAn_Sbm3tB-37" value="&lt;span style=&quot;text-align: center; text-wrap: nowrap; background-color: rgb(255, 255, 255);&quot;&gt;createOffering(lessonType, startTime, location, mode)&lt;/span&gt;" style="text;strokeColor=none;fillColor=none;align=left;verticalAlign=top;spacingLeft=4;spacingRight=4;overflow=hidden;rotatable=0;points=[[0,0.5],[1,0.5]];portConstraint=eastwest;whiteSpace=wrap;html=1;" vertex="1" parent="VqMvxvOwYOKAn_Sbm3tB-36">
          <mxGeometry y="26" width="350" height="26" as="geometry" />
        </mxCell>
        <mxCell id="VqMvxvOwYOKAn_Sbm3tB-38" value="&lt;span style=&quot;text-align: center; text-wrap: nowrap; background-color: rgb(255, 255, 255);&quot;&gt;viewAvailableOfferings()&lt;/span&gt;" style="text;strokeColor=none;fillColor=none;align=left;verticalAlign=top;spacingLeft=4;spacingRight=4;overflow=hidden;rotatable=0;points=[[0,0.5],[1,0.5]];portConstraint=eastwest;whiteSpace=wrap;html=1;" vertex="1" parent="VqMvxvOwYOKAn_Sbm3tB-36">
          <mxGeometry y="52" width="350" height="26" as="geometry" />
        </mxCell>
        <mxCell id="VqMvxvOwYOKAn_Sbm3tB-39" value="&lt;span style=&quot;text-align: center; text-wrap: nowrap; background-color: rgb(255, 255, 255);&quot;&gt;takeOffering(offeringId)&lt;/span&gt;" style="text;strokeColor=none;fillColor=none;align=left;verticalAlign=top;spacingLeft=4;spacingRight=4;overflow=hidden;rotatable=0;points=[[0,0.5],[1,0.5]];portConstraint=eastwest;whiteSpace=wrap;html=1;" vertex="1" parent="VqMvxvOwYOKAn_Sbm3tB-36">
          <mxGeometry y="78" width="350" height="32" as="geometry" />
        </mxCell>
      </root>
    </mxGraphModel>
  </diagram>
  <diagram id="nAHla5zb5Y_W3eQT8OPI" name="Contract Operations">
    <mxGraphModel grid="1" page="0" gridSize="10" guides="1" tooltips="1" connect="1" arrows="1" fold="1" pageScale="1" pageWidth="850" pageHeight="1100" math="0" shadow="0">
      <root>
        <mxCell id="0" />
        <mxCell id="1" parent="0" />
        <mxCell id="30Bg3z4UphkgLNoDZQKK-1" value="Contract: createOffering" style="text;html=1;align=center;verticalAlign=middle;resizable=0;points=[];autosize=1;strokeColor=none;fillColor=none;fontSize=16;" vertex="1" parent="1">
          <mxGeometry x="-687" y="-669" width="188" height="31" as="geometry" />
        </mxCell>
        <mxCell id="30Bg3z4UphkgLNoDZQKK-2" value="&amp;nbsp; &amp;nbsp; Operation: createOffering(lessonType: String, StartTime: LocalDateTime, mode: String, location: Location)" style="text;html=1;align=center;verticalAlign=middle;resizable=0;points=[];autosize=1;strokeColor=none;fillColor=none;fontSize=16;" vertex="1" parent="1">
          <mxGeometry x="-745" y="-644" width="785" height="31" as="geometry" />
        </mxCell>
        <mxCell id="30Bg3z4UphkgLNoDZQKK-3" value="Cross reference(s): Use Case Processing Offerings" style="text;html=1;align=center;verticalAlign=middle;resizable=0;points=[];autosize=1;strokeColor=none;fillColor=none;fontSize=16;" vertex="1" parent="1">
          <mxGeometry x="-687" y="-617" width="382" height="31" as="geometry" />
        </mxCell>
        <mxCell id="30Bg3z4UphkgLNoDZQKK-17" value="Preconditions:&amp;nbsp;&lt;div&gt;1. The Administrator is logged in and authenticated&lt;/div&gt;&lt;div&gt;2.The specified location exists in the system and has available time slots&lt;/div&gt;&lt;div&gt;3. The lessonType is valid and exists in the system&lt;/div&gt;&lt;div&gt;4. The mode is either &#39;private&#39; or &#39;group&#39;&lt;/div&gt;&lt;div&gt;&lt;br&gt;&lt;/div&gt;&lt;div&gt;&lt;br&gt;&lt;/div&gt;" style="text;html=1;align=left;verticalAlign=middle;resizable=0;points=[];autosize=1;strokeColor=none;fillColor=none;fontSize=16;" vertex="1" parent="1">
          <mxGeometry x="-679" y="-582" width="531" height="146" as="geometry" />
        </mxCell>
        <mxCell id="30Bg3z4UphkgLNoDZQKK-18" value="Postconditions:&lt;div&gt;1. A new Offering instance is created in the system (instance creation)&lt;/div&gt;&lt;div&gt;2. the new Offering&#39;s attributes are set: lessonType, duration, location, mode (attribute modification)&lt;/div&gt;&lt;div&gt;3.The new Offering&#39;s status is set to &quot;available&quot;.&lt;br&gt;&lt;/div&gt;&lt;div&gt;4. A new offerinfId is generated and assigned to new Offering&amp;nbsp;&lt;span style=&quot;background-color: initial;&quot;&gt;(attribute modification)&lt;/span&gt;&lt;/div&gt;&lt;div&gt;5. The available time sld for the specified location is updates to reflect new Offering&amp;nbsp;&lt;span style=&quot;background-color: initial;&quot;&gt;(attribute modification)&lt;/span&gt;&lt;/div&gt;&lt;div&gt;6. An association is formed between the new Offering and specified Location (Association formed)&lt;/div&gt;" style="text;html=1;align=left;verticalAlign=middle;resizable=0;points=[];autosize=1;strokeColor=none;fillColor=none;fontSize=16;" vertex="1" parent="1">
          <mxGeometry x="-679" y="-476" width="768" height="146" as="geometry" />
        </mxCell>
        <mxCell id="30Bg3z4UphkgLNoDZQKK-19" value="CO1" style="shape=umlFrame;whiteSpace=wrap;html=1;pointerEvents=0;" vertex="1" parent="1">
          <mxGeometry x="-738" y="-698" width="856" height="369" as="geometry" />
        </mxCell>
        <mxCell id="30Bg3z4UphkgLNoDZQKK-20" value="Contract: viewAvailableOfferings" style="text;html=1;align=center;verticalAlign=middle;resizable=0;points=[];autosize=1;strokeColor=none;fillColor=none;fontSize=16;" vertex="1" parent="1">
          <mxGeometry x="-687" y="-264" width="249" height="31" as="geometry" />
        </mxCell>
        <mxCell id="30Bg3z4UphkgLNoDZQKK-21" value="&amp;nbsp; &amp;nbsp; Operation: viewAvailableOfferings()" style="text;html=1;align=center;verticalAlign=middle;resizable=0;points=[];autosize=1;strokeColor=none;fillColor=none;fontSize=16;" vertex="1" parent="1">
          <mxGeometry x="-706" y="-239" width="287" height="31" as="geometry" />
        </mxCell>
        <mxCell id="30Bg3z4UphkgLNoDZQKK-22" value="Cross reference(s): Use Case Processing Offerings" style="text;html=1;align=center;verticalAlign=middle;resizable=0;points=[];autosize=1;strokeColor=none;fillColor=none;fontSize=16;" vertex="1" parent="1">
          <mxGeometry x="-687" y="-211" width="382" height="31" as="geometry" />
        </mxCell>
        <mxCell id="30Bg3z4UphkgLNoDZQKK-23" value="Preconditions:&amp;nbsp;&lt;div&gt;&lt;span style=&quot;background-color: initial;&quot;&gt;1. The instructor is logged in and authenticated&lt;/span&gt;&lt;br&gt;&lt;/div&gt;&lt;div&gt;&lt;br&gt;&lt;/div&gt;&lt;div&gt;&lt;br&gt;&lt;/div&gt;" style="text;html=1;align=left;verticalAlign=middle;resizable=0;points=[];autosize=1;strokeColor=none;fillColor=none;fontSize=16;" vertex="1" parent="1">
          <mxGeometry x="-679" y="-190" width="350" height="89" as="geometry" />
        </mxCell>
        <mxCell id="30Bg3z4UphkgLNoDZQKK-24" value="Postconditions:&lt;div&gt;none&lt;/div&gt;" style="text;html=1;align=left;verticalAlign=middle;resizable=0;points=[];autosize=1;strokeColor=none;fillColor=none;fontSize=16;" vertex="1" parent="1">
          <mxGeometry x="-681" y="-144" width="127" height="50" as="geometry" />
        </mxCell>
        <mxCell id="30Bg3z4UphkgLNoDZQKK-25" value="CO2" style="shape=umlFrame;whiteSpace=wrap;html=1;pointerEvents=0;" vertex="1" parent="1">
          <mxGeometry x="-738" y="-292" width="856" height="210" as="geometry" />
        </mxCell>
        <mxCell id="30Bg3z4UphkgLNoDZQKK-26" value="Contract: takeOffering" style="text;html=1;align=center;verticalAlign=middle;resizable=0;points=[];autosize=1;strokeColor=none;fillColor=none;fontSize=16;" vertex="1" parent="1">
          <mxGeometry x="-695" y="2" width="174" height="31" as="geometry" />
        </mxCell>
        <mxCell id="30Bg3z4UphkgLNoDZQKK-27" value="&amp;nbsp; &amp;nbsp; Operation: takeOffering(offeringId)" style="text;html=1;align=center;verticalAlign=middle;resizable=0;points=[];autosize=1;strokeColor=none;fillColor=none;fontSize=16;" vertex="1" parent="1">
          <mxGeometry x="-715" y="27" width="279" height="31" as="geometry" />
        </mxCell>
        <mxCell id="30Bg3z4UphkgLNoDZQKK-28" value="Cross reference(s): Use Case Processing Offerings" style="text;html=1;align=center;verticalAlign=middle;resizable=0;points=[];autosize=1;strokeColor=none;fillColor=none;fontSize=16;" vertex="1" parent="1">
          <mxGeometry x="-695" y="51" width="382" height="31" as="geometry" />
        </mxCell>
        <mxCell id="30Bg3z4UphkgLNoDZQKK-29" value="Preconditions:&amp;nbsp;&lt;div&gt;1. The Instructor is logged in and authenticated&lt;/div&gt;&lt;div&gt;2. The specified offeringId exists in the system&lt;/div&gt;&lt;div&gt;3. The Offering associated with offeringId is available (not taken by another Instructor)&lt;/div&gt;&lt;div&gt;4. The Instructor&#39;s qualification match the Offering&#39;s requirements&lt;/div&gt;&lt;div&gt;&lt;br&gt;&lt;/div&gt;&lt;div&gt;&lt;br&gt;&lt;/div&gt;" style="text;html=1;align=left;verticalAlign=middle;resizable=0;points=[];autosize=1;strokeColor=none;fillColor=none;fontSize=16;" vertex="1" parent="1">
          <mxGeometry x="-685" y="77" width="625" height="146" as="geometry" />
        </mxCell>
        <mxCell id="30Bg3z4UphkgLNoDZQKK-30" value="Postconditions:&lt;div&gt;1. The Offering&#39;s status is changed from &#39;available&#39; to &#39;taken&#39;.&amp;nbsp;&lt;span style=&quot;background-color: initial;&quot;&gt;(attribute modification)&lt;/span&gt;&lt;/div&gt;&lt;div&gt;2. An Association is formed between instructor and Offering&amp;nbsp;&lt;span style=&quot;background-color: initial;&quot;&gt;(Association formed)&lt;/span&gt;&lt;/div&gt;" style="text;html=1;align=left;verticalAlign=middle;resizable=0;points=[];autosize=1;strokeColor=none;fillColor=none;fontSize=16;" vertex="1" parent="1">
          <mxGeometry x="-687" y="178" width="609" height="70" as="geometry" />
        </mxCell>
        <mxCell id="30Bg3z4UphkgLNoDZQKK-31" value="CO3" style="shape=umlFrame;whiteSpace=wrap;html=1;pointerEvents=0;" vertex="1" parent="1">
          <mxGeometry x="-741" y="-32" width="856" height="300" as="geometry" />
        </mxCell>
      </root>
    </mxGraphModel>
  </diagram>
  <diagram id="lpSIQ89tHhapGm2pR5oW" name="Interaction Diagrams">
    <mxGraphModel grid="1" page="0" gridSize="10" guides="1" tooltips="1" connect="1" arrows="1" fold="1" pageScale="1" pageWidth="850" pageHeight="1100" background="none" math="0" shadow="0">
      <root>
        <mxCell id="0" />
        <mxCell id="1" parent="0" />
        <mxCell id="wvHq_chIEDrAHz9Sp8G--9" style="edgeStyle=none;curved=1;rounded=0;orthogonalLoop=1;jettySize=auto;html=1;fontSize=12;startSize=8;endSize=8;endArrow=none;endFill=0;dashed=1;" edge="1" parent="1">
          <mxGeometry relative="1" as="geometry">
            <mxPoint x="-175" y="534" as="targetPoint" />
            <mxPoint x="-184" y="-212" as="sourcePoint" />
          </mxGeometry>
        </mxCell>
        <mxCell id="wvHq_chIEDrAHz9Sp8G--1" value="Administrator" style="shape=umlActor;verticalLabelPosition=bottom;verticalAlign=top;html=1;" vertex="1" parent="1">
          <mxGeometry x="-201" y="-302" width="30" height="60" as="geometry" />
        </mxCell>
        <mxCell id="wvHq_chIEDrAHz9Sp8G--10" style="edgeStyle=none;curved=1;rounded=0;orthogonalLoop=1;jettySize=auto;html=1;fontSize=12;startSize=8;endSize=8;endArrow=none;endFill=0;dashed=1;" edge="1" parent="1" source="wvHq_chIEDrAHz9Sp8G--2">
          <mxGeometry relative="1" as="geometry">
            <mxPoint x="48" y="528" as="targetPoint" />
          </mxGeometry>
        </mxCell>
        <mxCell id="wvHq_chIEDrAHz9Sp8G--2" value="Console" style="html=1;whiteSpace=wrap;" vertex="1" parent="1">
          <mxGeometry x="-16" y="-288" width="110" height="50" as="geometry" />
        </mxCell>
        <mxCell id="wvHq_chIEDrAHz9Sp8G--11" style="edgeStyle=none;curved=1;rounded=0;orthogonalLoop=1;jettySize=auto;html=1;fontSize=12;startSize=8;endSize=8;endArrow=none;endFill=0;dashed=1;" edge="1" parent="1" source="wvHq_chIEDrAHz9Sp8G--3">
          <mxGeometry relative="1" as="geometry">
            <mxPoint x="305" y="528" as="targetPoint" />
          </mxGeometry>
        </mxCell>
        <mxCell id="wvHq_chIEDrAHz9Sp8G--3" value="LessonType" style="html=1;whiteSpace=wrap;" vertex="1" parent="1">
          <mxGeometry x="241" y="-290" width="110" height="50" as="geometry" />
        </mxCell>
        <mxCell id="wvHq_chIEDrAHz9Sp8G--12" style="edgeStyle=none;curved=1;rounded=0;orthogonalLoop=1;jettySize=auto;html=1;fontSize=12;startSize=8;endSize=8;endArrow=none;endFill=0;dashed=1;" edge="1" parent="1" source="wvHq_chIEDrAHz9Sp8G--5">
          <mxGeometry relative="1" as="geometry">
            <mxPoint x="555" y="532" as="targetPoint" />
          </mxGeometry>
        </mxCell>
        <mxCell id="wvHq_chIEDrAHz9Sp8G--5" value="&lt;u&gt;Off:Offering&lt;/u&gt;" style="html=1;whiteSpace=wrap;" vertex="1" parent="1">
          <mxGeometry x="493" y="-292" width="110" height="50" as="geometry" />
        </mxCell>
        <mxCell id="wvHq_chIEDrAHz9Sp8G--13" style="edgeStyle=none;curved=1;rounded=0;orthogonalLoop=1;jettySize=auto;html=1;fontSize=12;startSize=8;endSize=8;dashed=1;endArrow=none;endFill=0;" edge="1" parent="1" source="wvHq_chIEDrAHz9Sp8G--6">
          <mxGeometry relative="1" as="geometry">
            <mxPoint x="831" y="541" as="targetPoint" />
          </mxGeometry>
        </mxCell>
        <mxCell id="wvHq_chIEDrAHz9Sp8G--6" value="Location" style="html=1;whiteSpace=wrap;" vertex="1" parent="1">
          <mxGeometry x="758" y="-292" width="110" height="50" as="geometry" />
        </mxCell>
        <mxCell id="wvHq_chIEDrAHz9Sp8G--14" value="createOffering(lessonType, startTime, location, mode)" style="html=1;verticalAlign=bottom;endArrow=block;curved=0;rounded=0;fontSize=12;startSize=8;endSize=8;" edge="1" parent="1">
          <mxGeometry width="80" relative="1" as="geometry">
            <mxPoint x="-183" y="-174" as="sourcePoint" />
            <mxPoint x="40" y="-172" as="targetPoint" />
          </mxGeometry>
        </mxCell>
        <mxCell id="wvHq_chIEDrAHz9Sp8G--15" value="getTypicalDuration()" style="html=1;verticalAlign=bottom;endArrow=block;curved=0;rounded=0;fontSize=12;startSize=8;endSize=8;" edge="1" parent="1">
          <mxGeometry width="80" relative="1" as="geometry">
            <mxPoint x="40" y="-138" as="sourcePoint" />
            <mxPoint x="299" y="-138" as="targetPoint" />
          </mxGeometry>
        </mxCell>
        <mxCell id="wvHq_chIEDrAHz9Sp8G--16" value="typicalDuration" style="html=1;verticalAlign=bottom;endArrow=open;dashed=1;endSize=8;curved=0;rounded=0;fontSize=12;" edge="1" parent="1">
          <mxGeometry relative="1" as="geometry">
            <mxPoint x="296" y="-104" as="sourcePoint" />
            <mxPoint x="42" y="-106" as="targetPoint" />
          </mxGeometry>
        </mxCell>
        <mxCell id="wvHq_chIEDrAHz9Sp8G--17" value="hasAvailableTimeSlot(startTime, typicalDuration)" style="html=1;verticalAlign=bottom;endArrow=block;curved=0;rounded=0;fontSize=12;startSize=8;endSize=8;" edge="1" parent="1">
          <mxGeometry width="80" relative="1" as="geometry">
            <mxPoint x="41" y="-76" as="sourcePoint" />
            <mxPoint x="827" y="-76" as="targetPoint" />
          </mxGeometry>
        </mxCell>
        <mxCell id="wvHq_chIEDrAHz9Sp8G--18" value="availability Status" style="html=1;verticalAlign=bottom;endArrow=open;dashed=1;endSize=8;curved=0;rounded=0;fontSize=12;" edge="1" parent="1">
          <mxGeometry relative="1" as="geometry">
            <mxPoint x="820" y="17" as="sourcePoint" />
            <mxPoint x="43" y="17" as="targetPoint" />
          </mxGeometry>
        </mxCell>
        <mxCell id="wvHq_chIEDrAHz9Sp8G--19" value="alt" style="shape=umlFrame;whiteSpace=wrap;html=1;pointerEvents=0;" vertex="1" parent="1">
          <mxGeometry x="-266" y="33" width="1766" height="287" as="geometry" />
        </mxCell>
        <mxCell id="wvHq_chIEDrAHz9Sp8G--20" value="[availabilityStatus is false]" style="text;html=1;align=center;verticalAlign=middle;resizable=0;points=[];autosize=1;strokeColor=none;fillColor=none;fontSize=16;" vertex="1" parent="1">
          <mxGeometry x="-181" y="30" width="200" height="31" as="geometry" />
        </mxCell>
        <mxCell id="wvHq_chIEDrAHz9Sp8G--21" value="throw error" style="html=1;verticalAlign=bottom;endArrow=open;dashed=1;endSize=8;curved=0;rounded=0;fontSize=12;" edge="1" parent="1">
          <mxGeometry relative="1" as="geometry">
            <mxPoint x="48" y="99" as="sourcePoint" />
            <mxPoint x="-183" y="99" as="targetPoint" />
          </mxGeometry>
        </mxCell>
        <mxCell id="wvHq_chIEDrAHz9Sp8G--25" value="" style="endArrow=none;dashed=1;html=1;dashPattern=1 3;strokeWidth=2;rounded=0;fontSize=12;startSize=8;endSize=8;curved=1;exitX=0.003;exitY=0.516;exitDx=0;exitDy=0;exitPerimeter=0;entryX=1;entryY=0.451;entryDx=0;entryDy=0;entryPerimeter=0;" edge="1" parent="1" source="wvHq_chIEDrAHz9Sp8G--19" target="wvHq_chIEDrAHz9Sp8G--19">
          <mxGeometry width="50" height="50" relative="1" as="geometry">
            <mxPoint x="384" y="-139" as="sourcePoint" />
            <mxPoint x="434" y="-189" as="targetPoint" />
          </mxGeometry>
        </mxCell>
        <mxCell id="wvHq_chIEDrAHz9Sp8G--26" value="&lt;span style=&quot;font-size: 16px;&quot;&gt;[availabilityStatus is true]&lt;/span&gt;" style="edgeLabel;html=1;align=center;verticalAlign=middle;resizable=0;points=[];fontSize=12;" connectable="0" vertex="1" parent="wvHq_chIEDrAHz9Sp8G--25">
          <mxGeometry x="-0.7315" y="-18" relative="1" as="geometry">
            <mxPoint x="-1" as="offset" />
          </mxGeometry>
        </mxCell>
        <mxCell id="wvHq_chIEDrAHz9Sp8G--27" value="off:create(lessonType,startTime,location,mode)" style="html=1;verticalAlign=bottom;endArrow=block;curved=0;rounded=0;fontSize=12;startSize=8;endSize=8;" edge="1" parent="1">
          <mxGeometry width="80" relative="1" as="geometry">
            <mxPoint x="45" y="229" as="sourcePoint" />
            <mxPoint x="555" y="229" as="targetPoint" />
          </mxGeometry>
        </mxCell>
        <mxCell id="wvHq_chIEDrAHz9Sp8G--30" style="edgeStyle=none;curved=1;rounded=0;orthogonalLoop=1;jettySize=auto;html=1;fontSize=12;startSize=8;endSize=8;endArrow=none;endFill=0;dashed=1;" edge="1" parent="1" source="wvHq_chIEDrAHz9Sp8G--29">
          <mxGeometry relative="1" as="geometry">
            <mxPoint x="1213.1428571428573" y="557.571533203125" as="targetPoint" />
          </mxGeometry>
        </mxCell>
        <mxCell id="wvHq_chIEDrAHz9Sp8G--29" value="&lt;u&gt;:OfferingCatalog&lt;/u&gt;" style="html=1;whiteSpace=wrap;" vertex="1" parent="1">
          <mxGeometry x="1152" y="-302" width="110" height="50" as="geometry" />
        </mxCell>
        <mxCell id="wvHq_chIEDrAHz9Sp8G--32" value="add(off)" style="html=1;verticalAlign=bottom;endArrow=block;curved=0;rounded=0;fontSize=12;startSize=8;endSize=8;" edge="1" parent="1">
          <mxGeometry width="80" relative="1" as="geometry">
            <mxPoint x="42" y="273" as="sourcePoint" />
            <mxPoint x="1211" y="267" as="targetPoint" />
          </mxGeometry>
        </mxCell>
        <mxCell id="eI9eFPSfnoCoAYpsyBxN-7" style="edgeStyle=none;curved=1;rounded=0;orthogonalLoop=1;jettySize=auto;html=1;fontSize=12;startSize=8;endSize=8;dashed=1;endArrow=none;endFill=0;" edge="1" parent="1">
          <mxGeometry relative="1" as="geometry">
            <mxPoint x="-153" y="1218.2857142857147" as="targetPoint" />
            <mxPoint x="-153" y="768" as="sourcePoint" />
          </mxGeometry>
        </mxCell>
        <mxCell id="eI9eFPSfnoCoAYpsyBxN-2" value="Instructor" style="shape=umlActor;verticalLabelPosition=bottom;verticalAlign=top;html=1;" vertex="1" parent="1">
          <mxGeometry x="-168" y="678" width="30" height="60" as="geometry" />
        </mxCell>
        <mxCell id="eI9eFPSfnoCoAYpsyBxN-8" style="edgeStyle=none;curved=1;rounded=0;orthogonalLoop=1;jettySize=auto;html=1;fontSize=12;startSize=8;endSize=8;endArrow=none;endFill=0;dashed=1;" edge="1" parent="1" source="eI9eFPSfnoCoAYpsyBxN-4">
          <mxGeometry relative="1" as="geometry">
            <mxPoint x="96" y="1214" as="targetPoint" />
          </mxGeometry>
        </mxCell>
        <mxCell id="eI9eFPSfnoCoAYpsyBxN-4" value="Console" style="html=1;whiteSpace=wrap;" vertex="1" parent="1">
          <mxGeometry x="41" y="680" width="110" height="50" as="geometry" />
        </mxCell>
        <mxCell id="eI9eFPSfnoCoAYpsyBxN-9" style="edgeStyle=none;curved=1;rounded=0;orthogonalLoop=1;jettySize=auto;html=1;fontSize=12;startSize=8;endSize=8;endArrow=none;endFill=0;dashed=1;" edge="1" parent="1">
          <mxGeometry relative="1" as="geometry">
            <mxPoint x="373" y="1228.2857142857147" as="targetPoint" />
            <mxPoint x="373" y="728" as="sourcePoint" />
          </mxGeometry>
        </mxCell>
        <mxCell id="eI9eFPSfnoCoAYpsyBxN-10" value="viewAvailableOfferings()" style="html=1;verticalAlign=bottom;endArrow=block;curved=0;rounded=0;fontSize=12;startSize=8;endSize=8;" edge="1" parent="1">
          <mxGeometry x="0.0356" y="14" width="80" relative="1" as="geometry">
            <mxPoint x="-156" y="797" as="sourcePoint" />
            <mxPoint x="97" y="797" as="targetPoint" />
            <mxPoint as="offset" />
          </mxGeometry>
        </mxCell>
        <mxCell id="eI9eFPSfnoCoAYpsyBxN-12" value="loop" style="shape=umlFrame;whiteSpace=wrap;html=1;pointerEvents=0;" vertex="1" parent="1">
          <mxGeometry x="-259" y="831" width="779" height="104" as="geometry" />
        </mxCell>
        <mxCell id="eI9eFPSfnoCoAYpsyBxN-15" value="[for each offering where active == true]" style="text;html=1;align=center;verticalAlign=middle;resizable=0;points=[];autosize=1;strokeColor=none;fillColor=none;fontSize=16;" vertex="1" parent="1">
          <mxGeometry x="-171" y="831" width="292" height="31" as="geometry" />
        </mxCell>
        <mxCell id="eI9eFPSfnoCoAYpsyBxN-17" value="getActiveOfferings()" style="html=1;verticalAlign=bottom;endArrow=block;curved=0;rounded=0;fontSize=12;startSize=8;endSize=8;" edge="1" parent="1">
          <mxGeometry width="80" relative="1" as="geometry">
            <mxPoint x="95" y="890" as="sourcePoint" />
            <mxPoint x="367" y="890" as="targetPoint" />
          </mxGeometry>
        </mxCell>
        <mxCell id="eI9eFPSfnoCoAYpsyBxN-18" value="return active offerings list" style="html=1;verticalAlign=bottom;endArrow=open;dashed=1;endSize=8;curved=0;rounded=0;fontSize=12;" edge="1" parent="1">
          <mxGeometry relative="1" as="geometry">
            <mxPoint x="374" y="965" as="sourcePoint" />
            <mxPoint x="94" y="965" as="targetPoint" />
          </mxGeometry>
        </mxCell>
        <mxCell id="eI9eFPSfnoCoAYpsyBxN-21" value="display active offerings list" style="html=1;verticalAlign=bottom;endArrow=open;dashed=1;endSize=8;curved=0;rounded=0;fontSize=12;" edge="1" parent="1">
          <mxGeometry relative="1" as="geometry">
            <mxPoint x="94" y="1027" as="sourcePoint" />
            <mxPoint x="-152" y="1027" as="targetPoint" />
          </mxGeometry>
        </mxCell>
        <mxCell id="AEKWbByBUi_rSP5TKBiu-1" style="edgeStyle=none;curved=1;rounded=0;orthogonalLoop=1;jettySize=auto;html=1;fontSize=12;startSize=8;endSize=8;dashed=1;endArrow=none;endFill=0;" edge="1" parent="1">
          <mxGeometry relative="1" as="geometry">
            <mxPoint x="791" y="1204.2857142857147" as="targetPoint" />
            <mxPoint x="791" y="754" as="sourcePoint" />
          </mxGeometry>
        </mxCell>
        <mxCell id="AEKWbByBUi_rSP5TKBiu-2" value="Instructor" style="shape=umlActor;verticalLabelPosition=bottom;verticalAlign=top;html=1;" vertex="1" parent="1">
          <mxGeometry x="776" y="664" width="30" height="60" as="geometry" />
        </mxCell>
        <mxCell id="AEKWbByBUi_rSP5TKBiu-3" style="edgeStyle=none;curved=1;rounded=0;orthogonalLoop=1;jettySize=auto;html=1;fontSize=12;startSize=8;endSize=8;endArrow=none;endFill=0;dashed=1;" edge="1" parent="1" source="AEKWbByBUi_rSP5TKBiu-4">
          <mxGeometry relative="1" as="geometry">
            <mxPoint x="1040" y="1200" as="targetPoint" />
          </mxGeometry>
        </mxCell>
        <mxCell id="AEKWbByBUi_rSP5TKBiu-4" value="Console" style="html=1;whiteSpace=wrap;" vertex="1" parent="1">
          <mxGeometry x="985" y="666" width="110" height="50" as="geometry" />
        </mxCell>
        <mxCell id="AEKWbByBUi_rSP5TKBiu-5" style="edgeStyle=none;curved=1;rounded=0;orthogonalLoop=1;jettySize=auto;html=1;fontSize=12;startSize=8;endSize=8;endArrow=none;endFill=0;dashed=1;" edge="1" parent="1">
          <mxGeometry relative="1" as="geometry">
            <mxPoint x="1317" y="1214.2857142857147" as="targetPoint" />
            <mxPoint x="1314.1398508257862" y="703" as="sourcePoint" />
          </mxGeometry>
        </mxCell>
        <mxCell id="AEKWbByBUi_rSP5TKBiu-7" value="takeOffering(OfferingId)" style="html=1;verticalAlign=bottom;endArrow=block;curved=0;rounded=0;fontSize=12;startSize=8;endSize=8;" edge="1" parent="1">
          <mxGeometry x="0.0356" y="14" width="80" relative="1" as="geometry">
            <mxPoint x="788" y="783" as="sourcePoint" />
            <mxPoint x="1041" y="783" as="targetPoint" />
            <mxPoint as="offset" />
          </mxGeometry>
        </mxCell>
        <mxCell id="ntySwWQmr7-TiHcY1bx--2" style="edgeStyle=none;curved=1;rounded=0;orthogonalLoop=1;jettySize=auto;html=1;fontSize=12;startSize=8;endSize=8;endArrow=none;endFill=0;dashed=1;" edge="1" parent="1" source="ntySwWQmr7-TiHcY1bx--1">
          <mxGeometry relative="1" as="geometry">
            <mxPoint x="1174" y="1229.7142857142858" as="targetPoint" />
          </mxGeometry>
        </mxCell>
        <mxCell id="ntySwWQmr7-TiHcY1bx--1" value="&lt;u&gt;Off:Offering&lt;/u&gt;" style="html=1;whiteSpace=wrap;" vertex="1" parent="1">
          <mxGeometry x="1119" y="664" width="110" height="50" as="geometry" />
        </mxCell>
        <mxCell id="ntySwWQmr7-TiHcY1bx--3" value="off:find(offeringId)" style="html=1;verticalAlign=bottom;endArrow=block;curved=0;rounded=0;fontSize=12;startSize=8;endSize=8;" edge="1" parent="1">
          <mxGeometry width="80" relative="1" as="geometry">
            <mxPoint x="1040" y="814" as="sourcePoint" />
            <mxPoint x="1321" y="820" as="targetPoint" />
          </mxGeometry>
        </mxCell>
        <mxCell id="ntySwWQmr7-TiHcY1bx--4" value="setStatus(&quot;taken&quot;)" style="html=1;verticalAlign=bottom;endArrow=block;curved=0;rounded=0;fontSize=12;startSize=8;endSize=8;" edge="1" parent="1">
          <mxGeometry width="80" relative="1" as="geometry">
            <mxPoint x="1042" y="850" as="sourcePoint" />
            <mxPoint x="1174" y="852" as="targetPoint" />
          </mxGeometry>
        </mxCell>
        <mxCell id="ntySwWQmr7-TiHcY1bx--5" value="makeOfferingPublic()" style="html=1;verticalAlign=bottom;endArrow=block;curved=0;rounded=0;fontSize=12;startSize=8;endSize=8;" edge="1" parent="1">
          <mxGeometry width="80" relative="1" as="geometry">
            <mxPoint x="1041" y="898" as="sourcePoint" />
            <mxPoint x="1173" y="898" as="targetPoint" />
          </mxGeometry>
        </mxCell>
        <mxCell id="LWElUrHkr_XLk5m24YeD-2" style="edgeStyle=none;curved=1;rounded=0;orthogonalLoop=1;jettySize=auto;html=1;fontSize=12;startSize=8;endSize=8;endArrow=none;endFill=0;dashed=1;" edge="1" parent="1" source="LWElUrHkr_XLk5m24YeD-1">
          <mxGeometry relative="1" as="geometry">
            <mxPoint x="1025.9411764705883" y="554.1764705882354" as="targetPoint" />
          </mxGeometry>
        </mxCell>
        <mxCell id="LWElUrHkr_XLk5m24YeD-1" value="TimeSlot" style="html=1;whiteSpace=wrap;" vertex="1" parent="1">
          <mxGeometry x="959" y="-295" width="110" height="50" as="geometry" />
        </mxCell>
        <mxCell id="LWElUrHkr_XLk5m24YeD-4" value="isValidSlot(startTime,typicalDuration)" style="html=1;verticalAlign=bottom;endArrow=block;curved=0;rounded=0;fontSize=12;startSize=8;endSize=8;" edge="1" parent="1">
          <mxGeometry width="80" relative="1" as="geometry">
            <mxPoint x="819" y="-45" as="sourcePoint" />
            <mxPoint x="1015" y="-45" as="targetPoint" />
          </mxGeometry>
        </mxCell>
        <mxCell id="LWElUrHkr_XLk5m24YeD-5" value="validity status" style="html=1;verticalAlign=bottom;endArrow=open;dashed=1;endSize=8;curved=0;rounded=0;fontSize=12;" edge="1" parent="1">
          <mxGeometry relative="1" as="geometry">
            <mxPoint x="1018" y="-15" as="sourcePoint" />
            <mxPoint x="817" y="-15" as="targetPoint" />
          </mxGeometry>
        </mxCell>
        <mxCell id="LWElUrHkr_XLk5m24YeD-7" value="" style="edgeStyle=segmentEdgeStyle;endArrow=none;html=1;curved=0;rounded=0;endSize=8;startSize=8;fontSize=12;entryX=0.25;entryY=0;entryDx=0;entryDy=0;exitX=1;exitY=0.5;exitDx=0;exitDy=0;endFill=0;" edge="1" parent="1" source="wvHq_chIEDrAHz9Sp8G--29" target="wvHq_chIEDrAHz9Sp8G--29">
          <mxGeometry width="50" height="50" relative="1" as="geometry">
            <mxPoint x="669" y="130" as="sourcePoint" />
            <mxPoint x="719" y="80" as="targetPoint" />
            <Array as="points">
              <mxPoint x="1262" y="-282" />
              <mxPoint x="1280" y="-282" />
              <mxPoint x="1280" y="-313" />
              <mxPoint x="1180" y="-313" />
            </Array>
          </mxGeometry>
        </mxCell>
        <mxCell id="LWElUrHkr_XLk5m24YeD-8" value="&lt;u&gt;:OfferingCatalog&lt;/u&gt;" style="html=1;whiteSpace=wrap;" vertex="1" parent="1">
          <mxGeometry x="1253" y="661" width="110" height="50" as="geometry" />
        </mxCell>
        <mxCell id="LWElUrHkr_XLk5m24YeD-9" value="" style="edgeStyle=segmentEdgeStyle;endArrow=none;html=1;curved=0;rounded=0;endSize=8;startSize=8;fontSize=12;entryX=0.25;entryY=0;entryDx=0;entryDy=0;exitX=1;exitY=0.5;exitDx=0;exitDy=0;endFill=0;" edge="1" parent="1" source="LWElUrHkr_XLk5m24YeD-8" target="LWElUrHkr_XLk5m24YeD-8">
          <mxGeometry width="50" height="50" relative="1" as="geometry">
            <mxPoint x="770" y="1093" as="sourcePoint" />
            <mxPoint x="820" y="1043" as="targetPoint" />
            <Array as="points">
              <mxPoint x="1363" y="681" />
              <mxPoint x="1381" y="681" />
              <mxPoint x="1381" y="650" />
              <mxPoint x="1281" y="650" />
            </Array>
          </mxGeometry>
        </mxCell>
        <mxCell id="LWElUrHkr_XLk5m24YeD-10" value="&lt;u&gt;:OfferingCatalog&lt;/u&gt;" style="html=1;whiteSpace=wrap;" vertex="1" parent="1">
          <mxGeometry x="318" y="680" width="110" height="50" as="geometry" />
        </mxCell>
        <mxCell id="LWElUrHkr_XLk5m24YeD-11" value="" style="edgeStyle=segmentEdgeStyle;endArrow=none;html=1;curved=0;rounded=0;endSize=8;startSize=8;fontSize=12;entryX=0.25;entryY=0;entryDx=0;entryDy=0;exitX=1;exitY=0.5;exitDx=0;exitDy=0;endFill=0;" edge="1" parent="1" source="LWElUrHkr_XLk5m24YeD-10" target="LWElUrHkr_XLk5m24YeD-10">
          <mxGeometry width="50" height="50" relative="1" as="geometry">
            <mxPoint x="-165" y="1112" as="sourcePoint" />
            <mxPoint x="-115" y="1062" as="targetPoint" />
            <Array as="points">
              <mxPoint x="428" y="700" />
              <mxPoint x="446" y="700" />
              <mxPoint x="446" y="669" />
              <mxPoint x="346" y="669" />
            </Array>
          </mxGeometry>
        </mxCell>
      </root>
    </mxGraphModel>
  </diagram>
</mxfile>
